<?xml version="1.0" encoding="UTF-8" standalone="no"?>
<svg
   xmlns:dc="http://purl.org/dc/elements/1.1/"
   xmlns:cc="http://creativecommons.org/ns#"
   xmlns:rdf="http://www.w3.org/1999/02/22-rdf-syntax-ns#"
   xmlns:svg="http://www.w3.org/2000/svg"
   xmlns="http://www.w3.org/2000/svg"
   xmlns:sodipodi="http://sodipodi.sourceforge.net/DTD/sodipodi-0.dtd"
   xmlns:inkscape="http://www.inkscape.org/namespaces/inkscape"
   version="1.1"
   width="100"
   height="160.52844"
   id="svg2"
   inkscape:version="0.91 r13725"
   viewBox="0 0 100 160.52844"
   sodipodi:docname="Peao.svg">
  <metadata
     id="metadata20">
    <rdf:RDF>
      <cc:Work
         rdf:about="">
        <dc:format>image/svg+xml</dc:format>
        <dc:type
           rdf:resource="http://purl.org/dc/dcmitype/StillImage" />
        <dc:title></dc:title>
      </cc:Work>
    </rdf:RDF>
  </metadata>
  <defs
     id="defs18" />
  <sodipodi:namedview
     pagecolor="#ffffff"
     bordercolor="#666666"
     borderopacity="1"
     objecttolerance="10"
     gridtolerance="10"
     guidetolerance="10"
     inkscape:pageopacity="0"
     inkscape:pageshadow="2"
     inkscape:window-width="1317"
     inkscape:window-height="744"
     id="namedview16"
     showgrid="false"
     inkscape:zoom="2.2425739"
     inkscape:cx="115.25941"
     inkscape:cy="81.228934"
     inkscape:window-x="49"
     inkscape:window-y="24"
     inkscape:window-maximized="1"
     inkscape:current-layer="svg2"
     fit-margin-top="0"
     fit-margin-left="0"
     fit-margin-right="0"
     fit-margin-bottom="0" />
  <path
     d="M 50.000024,0.04618182 A 30.303009,30.303009 0 0 1 80.303032,30.349192 30.303009,30.303009 0 1 1 50.000024,0.04618182 Z"
     style="fill:#000000;fill-rule:evenodd;stroke:#1b1918;stroke-width:0.09236363;stroke-linecap:butt;stroke-linejoin:miter;stroke-dasharray:none"
     id="path4"
     inkscape:connector-curvature="0" />
  <path
     d="m 50.000024,53.379502 a 30.303009,9.6969832 0 0 1 30.303008,9.69698 30.303009,9.6969832 0 1 1 -30.303008,-9.69698 z"
     style="fill:#000000;fill-rule:evenodd;stroke:#1b1918;stroke-width:0.09236363;stroke-linecap:butt;stroke-linejoin:miter;stroke-dasharray:none"
     id="path6"
     inkscape:connector-curvature="0" />
  <path
     d="m 30.702101,66.863392 38.595763,0 19.297796,79.309228 -77.191313,0 19.297754,-79.309228 z"
     style="fill:#000000;fill-rule:evenodd;stroke:#000000;stroke-width:0;stroke-dasharray:none"
     id="path8"
     inkscape:connector-curvature="0" />
  <path
     d="m 4.9999999e-6,151.59483 0,-9e-5 q 0,8.9337 11.8507230000001,8.9337 l 76.29855,0 q 11.85072,0 11.85072,-8.9337 l 0,9e-5 q 0,-8.93366 -11.85072,-8.93366 l -76.29855,0 q -11.8507230000001,0 -11.8507230000001,8.93366 z"
     style="fill:#000000;fill-rule:evenodd;stroke:#000000;stroke-width:0;stroke-dasharray:none"
     id="path10"
     inkscape:connector-curvature="0" />
  <path
     d="m 50.000024,66.994412 a 34.848497,9.6969832 0 0 1 34.848452,9.69698 34.848497,9.6969832 0 1 1 -34.848452,-9.69698 z"
     style="fill:#000000;fill-rule:evenodd;stroke:#1b1918;stroke-width:0.09236363;stroke-linecap:butt;stroke-linejoin:miter;stroke-dasharray:none"
     id="path12"
     inkscape:connector-curvature="0" />
  <path
     d="m 6.0606408,139.63092 0,-9e-5 q 0,6.06064 10.4142552,6.06064 l 67.050258,0 q 10.414255,0 10.414255,-6.06064 l 0,9e-5 q 0,-6.06064 -10.414255,-6.06064 l -67.050258,0 q -10.4142552,0 -10.4142552,6.06064 z"
     style="fill:#000000;fill-rule:evenodd;stroke:#000000;stroke-width:0;stroke-dasharray:none"
     id="path14"
     inkscape:connector-curvature="0" />
</svg>
